<svg width="72" height="72" viewBox="0 0 72 72" fill="none" xmlns="http://www.w3.org/2000/svg">
<rect width="72" height="72" rx="36" fill="#0A1930"/>
<g filter="url(#filter0_d_131_46)">
<path d="M48.912 23.44C49.5733 23.568 50.064 23.792 50.384 24.112C50.7253 24.432 50.896 24.8053 50.896 25.232C50.896 25.936 50.6933 26.448 50.288 26.768C49.904 27.088 49.2853 27.216 48.432 27.152C46.512 27.0027 45.008 26.9067 43.92 26.864C42.8533 26.8 41.4453 26.7573 39.696 26.736C38.9067 30.6613 38.1813 34.608 37.52 38.576C37.2853 40.0267 37.04 41.712 36.784 43.632C36.528 45.5307 36.3573 47.0667 36.272 48.24C36.2293 48.8587 35.9733 49.3387 35.504 49.68C35.0347 50 34.4693 50.16 33.808 50.16C33.104 50.16 32.56 49.9893 32.176 49.648C31.792 49.3067 31.6 48.8587 31.6 48.304C31.6 47.792 31.6747 46.9493 31.824 45.776C31.9947 44.5813 32.1867 43.3333 32.4 42.032C32.6347 40.7307 32.816 39.6 32.944 38.64C33.1787 37.0187 33.4453 35.408 33.744 33.808C34.0427 32.208 34.3413 30.6933 34.64 29.264C34.704 28.944 34.7787 28.5813 34.864 28.176C34.9493 27.7493 35.0453 27.28 35.152 26.768C33.0613 26.832 31.4187 27.0027 30.224 27.28C29.0293 27.5573 28.176 27.952 27.664 28.464C27.1733 28.9547 26.928 29.5947 26.928 30.384C26.928 31.1093 27.1413 31.8027 27.568 32.464C27.6533 32.6133 27.696 32.7733 27.696 32.944C27.696 33.3493 27.4507 33.7333 26.96 34.096C26.4907 34.4373 26 34.608 25.488 34.608C25.1253 34.608 24.8267 34.5013 24.592 34.288C24.1653 33.9253 23.8133 33.4133 23.536 32.752C23.2587 32.0693 23.12 31.3013 23.12 30.448C23.12 28.6347 23.7067 27.184 24.88 26.096C26.0747 24.9867 27.8773 24.176 30.288 23.664C32.72 23.152 35.8347 22.896 39.632 22.896C41.9787 22.896 43.8453 22.9387 45.232 23.024C46.64 23.1093 47.8667 23.248 48.912 23.44Z" fill="#216CFF"/>
</g>
<defs>
<filter id="filter0_d_131_46" x="19.1201" y="22.896" width="35.7759" height="35.2642" filterUnits="userSpaceOnUse" color-interpolation-filters="sRGB">
<feFlood flood-opacity="0" result="BackgroundImageFix"/>
<feColorMatrix in="SourceAlpha" type="matrix" values="0 0 0 0 0 0 0 0 0 0 0 0 0 0 0 0 0 0 127 0" result="hardAlpha"/>
<feOffset dy="4"/>
<feGaussianBlur stdDeviation="2"/>
<feComposite in2="hardAlpha" operator="out"/>
<feColorMatrix type="matrix" values="0 0 0 0 0 0 0 0 0 0 0 0 0 0 0 0 0 0 0.25 0"/>
<feBlend mode="normal" in2="BackgroundImageFix" result="effect1_dropShadow_131_46"/>
<feBlend mode="normal" in="SourceGraphic" in2="effect1_dropShadow_131_46" result="shape"/>
</filter>
</defs>
</svg>
